<?xml version="1.0" encoding="utf-8"?>
<!-- Generator: Adobe Illustrator 23.0.1, SVG Export Plug-In . SVG Version: 6.00 Build 0)  -->
<svg version="1.1" id="Layer_1" xmlns="http://www.w3.org/2000/svg" xmlns:xlink="http://www.w3.org/1999/xlink" x="0px" y="0px"
	 viewBox="0 0 500 500" style="enable-background:new 0 0 500 500;" xml:space="preserve">
<style type="text/css">
	.st0{fill:none;}
	.st1{fill:#FFFFFF;}
</style>
<path class="st0" d="M389.9,500H110.1C49.3,500,0,450.7,0,389.9V110.1C0,49.3,49.3,0,110.1,0h279.8C450.7,0,500,49.3,500,110.1
	v279.8C500,450.7,450.7,500,389.9,500z"/>
<g>
	<path class="st1" d="M280.6,327.2c-0.9,9.7-7.5,16.7-17.2,16.7h-24.7c-8.8,0-15-7-16.3-16.7c-0.9-6.2-1.3-11.5-1.3-16.7
		c0-21.6,6.6-37.4,24.2-66.1l12.8-20.7c12.3-20.3,14.5-31.3,14.5-56.4v-19.8c0-8.8-2.2-13.7-5.7-17.6c-4-4.4-9.3-7-15.4-7
		c-6.2,0-10.6,2.2-14.5,5.7c-4,4-6.6,9.3-6.6,18.1v21.6c0,9.7-7.5,17.2-17.2,17.2h-26.9c-9.7,0-17.2-7.5-17.2-17.2v-22
		c0-28.6,9.7-48.5,26.9-62.6c15.4-12.3,33.5-19.8,55.1-19.8c21.6,0,40.5,7.5,56,19.8c17.6,14.1,27.3,33.9,27.3,64.8v20.3
		c0,30-2.6,49.8-21.6,81.9l-18.5,31.7c-10.1,17.2-11.9,31.3-13.2,41L280.6,327.2z M237,430.3c-9.7,0-17.2-7.5-17.2-17.2v-29.1
		c0-9.7,7.5-17.2,17.2-17.2h29.1c9.7,0,17.2,7.5,17.2,17.2v29.1c0,9.7-7.5,17.2-17.2,17.2H237z"/>
</g>
</svg>
